<svg viewBox="0 0 48 48" xml:space="preserve" xmlns="http://www.w3.org/2000/svg"><path d="M24 .125C10.814.125.125 10.814.125 24 .125 37.187 10.814 47.875 24 47.875S47.875 37.187 47.875 24C47.875 10.814 37.186.125 24 .125zm-.551 14.037c.098-.576.387-1.062.861-1.466.469-.407.993-.609 1.569-.609.573 0 1.037.202 1.392.609.356.403.478.89.38 1.466-.104.572-.391 1.062-.86 1.467-.473.403-.998.605-1.57.605-.572 0-1.029-.202-1.367-.605-.339-.404-.476-.895-.405-1.467zm6.635 17.283-.05.072c-.04.052-.082.108-.131.167-.551.695-2.374 2.772-5.146 3.804a5.686 5.686 0 0 1-.292.105l-.116.043c-.004-.002-.006-.004-.01-.004a5.829 5.829 0 0 1-1.716.281c-1.228 0-1.843-.562-1.843-1.685 0-.476.252-1.937.756-4.379l.986-4.728.251-1.195.202-.957c.085-.406.127-.745.127-1.023 0-.309-.09-.506-.227-.646-.19-.157-.488-.13-.645-.094a6.987 6.987 0 0 0-.872.312c-1.996.998-3.185 2.531-3.185 2.531-.316-.196-.476-.394-.476-.59 0-.251.124-.533.36-.843l-.002.001.009-.011c.182-.237.426-.49.745-.762a12.499 12.499 0 0 1 1.762-1.332c.037-.024.061-.043.101-.069 2.766-1.823 4.633-1.682 4.633-1.682l-.005.008c.284.023.695.127 1.137.487.042.034.058.064.088.098.028.028.056.058.082.089a.565.565 0 0 1 .066.122c.177.274.287.611.287 1.055 0 .232-.068.708-.201 1.427l-.226 1.162c-.021.093-.11.562-.278 1.408l-1.035 4.969-.253 1.111c-.221 1.102-.33 1.834-.33 2.205 0 .449.184.687.523.73.12-.01.492-.046.891-.188.135-.062.271-.114.401-.185a.08.08 0 0 1 .024-.014c1.511-.837 2.672-2.236 2.984-2.632.052-.076.104-.141.156-.216.446.187.677.365.677.54 0 .128-.076.299-.217.505h.008z" fill="#737373" class="fill-241f20"></path></svg>