<svg viewBox="0 0 32 32" xmlns="http://www.w3.org/2000/svg"><path d="M23.5 7.27H25l.47-3.16a.74.74 0 0 0-.74-.86H7.25a.74.74 0 0 0-.74.86L7 7.27h16.5ZM25.36 11.16h1.51l.46-3a.78.78 0 0 0-.17-.6.77.77 0 0 0-.57-.26H25l-.13.86a.74.74 0 0 1-.74.64H7.85a.74.74 0 0 1-.74-.64L7 7.27H5.41a.77.77 0 0 0-.57.26.78.78 0 0 0-.17.6l.46 3h20.23Z" fill="#f7f7f7" class="fill-1a1a1a"></path><path d="M29.57 11.42a.77.77 0 0 0-.57-.26h-2.13l-.13.87a.74.74 0 0 1-.74.63H6a.74.74 0 0 1-.74-.66l-.13-.87H3a.77.77 0 0 0-.57.26.78.78 0 0 0-.17.6l2.41 16.12a.74.74 0 0 0 .74.64h21.18a.74.74 0 0 0 .74-.64L29.74 12a.78.78 0 0 0-.17-.58ZM20 20.71h-3.25V24a.75.75 0 0 1-1.5 0v-3.29H12a.75.75 0 0 1 0-1.5h3.25V16a.75.75 0 0 1 1.5 0v3.25H20a.75.75 0 0 1 0 1.5Z" fill="#f7f7f7" class="fill-1a1a1a"></path></svg>