<svg viewBox="0 0 6.35 6.35" xmlns="http://www.w3.org/2000/svg"><path d="M3.97.53a.797.797 0 0 0-.794.792c0 .436.358.795.793.795.435 0 .793-.36.793-.795A.797.797 0 0 0 3.969.53zm0 .529c.148 0 .263.114.263.263a.26.26 0 0 1-.264.266.26.26 0 0 1-.263-.266c0-.149.114-.263.263-.263zM2.38 2.117a.796.796 0 0 0-.792.793c0 .343.223.636.53.746v.004c-.001.177.004.251.043.31-.573 0-.951.027-1.26.251-.337.346-.372.542-.372 1.07.061.38.265.53.618.53h2.469c.353 0 .564-.18.617-.53 0-.528-.094-.845-.356-1.058h1.327c.352 0 .523-.239.617-.527 0-.531-.1-.862-.37-1.073-.243-.183-.567-.252-.953-.252H3.44c-.159 0-.302.015-.435.041a.796.796 0 0 0-.624-.305Zm0 .53a.26.26 0 0 1 .266.264c0 .149-.116.265-.265.265a.261.261 0 0 1-.264-.266c0-.15.115-.263.264-.263zm1.06.263h1.058c.32 0 .527.065.635.147.11.081.159.177.159.383v.242a.165.165 0 0 1-.088.024h-2.47c-.088-.001-.088-.002-.087-.048v-.002a.8.8 0 0 0 .528-.71c.078-.018.155-.036.265-.036zm.105 1.733c.109.082.16.18.16.385v.24a.168.168 0 0 1-.09.024H1.148a.168.168 0 0 1-.088-.022v-.242c0-.206.05-.303.158-.385.627-.237 1.69-.242 2.328 0z" style="line-height:normal;font-variant-ligatures:normal;font-variant-position:normal;font-variant-caps:normal;font-variant-numeric:normal;font-variant-alternates:normal;font-variant-east-asian:normal;font-feature-settings:normal;font-variation-settings:normal;text-indent:0;text-align:start;text-decoration-line:none;text-decoration-style:solid;text-decoration-color:#000;text-transform:none;text-orientation:mixed;white-space:normal;shape-padding:0;shape-margin:0;inline-size:0;isolation:auto;mix-blend-mode:normal;solid-color:#000;solid-opacity:1" color="#000000" font-style="normal" font-variant="normal" font-weight="400" font-stretch="normal" font-size="medium" font-family="sans-serif" text-decoration="none" letter-spacing="normal" word-spacing="normal" writing-mode="lr-tb" direction="ltr" dominant-baseline="auto" baseline-shift="baseline" text-anchor="start" clip-rule="nonzero" display="inline" overflow="visible" visibility="visible" opacity="1" color-interpolation="sRGB" color-interpolation-filters="linearRGB" vector-effect="none" fill="#737373" fill-opacity="1" fill-rule="nonzero" stroke="none" stroke-width=".52922" stroke-linecap="round" stroke-linejoin="round" stroke-miterlimit="4" stroke-dasharray="none" stroke-dashoffset="0" stroke-opacity="1" color-rendering="auto" image-rendering="auto" shape-rendering="auto" text-rendering="auto" enable-background="accumulate" stop-color="#737373" stop-opacity="1" class="fill-000000 stop-color-000000"></path></svg>