<?xml version="1.0" ?><svg id="Layer_2" style="enable-background:new 0 0 32 32;" version="1.1" viewBox="0 0 32 32" xml:space="preserve" xmlns="http://www.w3.org/2000/svg" xmlns:xlink="http://www.w3.org/1999/xlink"><g><path d="M6.54999,7.12c0,3.64001,2.97003,6.60999,6.62,6.60999c3.65002,0,6.62-2.96997,6.62-6.60999   c0-3.65002-2.96997-6.62-6.62-6.62C9.52002,0.5,6.54999,3.46997,6.54999,7.12z"/><path d="M1.66998,26v2c0,1.92999,1.57001,3.5,3.5,3.5h16c1.92999,0,3.5-1.57001,3.5-3.5v-2c0-6.34003-5.15997-11.5-11.5-11.5   C6.83002,14.5,1.66998,19.65997,1.66998,26z"/><path d="M27.21313,15.34863v-1.61621h1.61621c0.82813,0,1.5-0.67188,1.5-1.5s-0.67188-1.5-1.5-1.5h-1.61621V9.11621   c0-0.82813-0.67188-1.5-1.5-1.5s-1.5,0.67188-1.5,1.5v1.61621H22.5979c-0.82813,0-1.5,0.67188-1.5,1.5s0.67188,1.5,1.5,1.5h1.61523   v1.61621c0,0.82813,0.67188,1.5,1.5,1.5S27.21313,16.17676,27.21313,15.34863z"/></g></svg>