<?xml version="1.0" encoding="utf-8"?>
<!-- Svg Vector Icons : http://www.onlinewebfonts.com/icon -->
<!DOCTYPE svg PUBLIC "-//W3C//DTD SVG 1.1//EN" "http://www.w3.org/Graphics/SVG/1.1/DTD/svg11.dtd">
<svg version="1.1" xmlns="http://www.w3.org/2000/svg" xmlns:xlink="http://www.w3.org/1999/xlink" x="0px" y="0px" viewBox="0 0 256 256" enable-background="new 0 0 256 256" xml:space="preserve">
<metadata> Svg Vector Icons : http://www.onlinewebfonts.com/icon </metadata>
<g><g><path fill="#000000" d="M41,96.9c-17.1,0-31,13.9-31,31.1c0,17.1,13.9,31.1,31,31.1c17.1,0,31-13.9,31-31.1C72.1,110.9,58.2,96.9,41,96.9z M128,96.9c-17.1,0-31.1,13.9-31.1,31c0,17.1,13.9,31.1,31.1,31.1c17.1,0,31-13.9,31-31.1C159,110.9,145.1,96.9,128,96.9z M215,96.9c-17.1,0-31,13.9-31,31c0,17.1,13.9,31.1,31,31.1s31-13.9,31-31.1C246,110.9,232.1,96.9,215,96.9z"/></g></g>
</svg>