<?xml version="1.0" encoding="utf-8"?><!-- Uploaded to: SVG Repo, www.svgrepo.com, Generator: SVG Repo Mixer Tools -->
<svg width="800px" height="800px" viewBox="0 0 960 960" fill="none" xmlns="http://www.w3.org/2000/svg">
<path d="M569.799 693.132C515.167 706.815 457.24 700.023 403.907 683.544C389.225 679.049 375.242 681.147 361.46 685.241C329.999 694.53 298.838 704.717 267.677 714.605C253.395 721.596 236.915 708.213 244.706 693.132C256.691 652.882 283.058 612.632 281.06 570.185C197.365 402.795 334.194 213.331 514.868 212.832C514.868 213.232 514.868 213.731 514.868 214.13C767.852 212.832 818.388 636.203 569.799 693.132ZM482.408 413.981C477.015 402.795 460.136 403.893 450.249 407.888C435.467 427.164 369.749 471.309 373.544 491.284C369.849 525.541 418.089 501.971 436.166 499.673C445.554 497.376 451.247 499.474 456.341 507.164C469.325 522.245 475.417 550.41 498.888 550.61C504.381 550.31 509.275 550.011 512.77 545.117C539.038 514.755 567.602 486.29 594.568 456.527C605.355 433.356 590.873 419.773 567.902 429.361C506.279 457.127 524.156 478.2 482.408 413.981Z" fill="white"/>
<path d="M436.063 499.673C417.985 501.97 369.845 525.541 373.441 491.284C369.646 471.309 435.364 427.164 450.145 407.888C460.033 403.793 476.912 402.794 482.305 413.98C524.053 478.1 506.175 457.127 567.898 429.361C590.869 419.773 605.451 433.356 594.565 456.527C567.598 486.29 539.034 514.754 512.767 545.117C509.271 550.01 504.377 550.31 498.884 550.61C475.314 550.41 469.321 522.245 456.337 507.164C451.144 499.474 445.551 497.376 436.063 499.673Z" fill="#000000"/>
<path d="M597.661 874.406C433.067 877.902 193.067 912.658 112.368 729.188C75.1142 632.908 91.1941 526.241 86.5 425.168C89.0968 243.195 130.645 90.0865 343.179 86.9903C343.179 86.7906 343.179 86.6907 343.179 86.491C457.336 84.6932 573.591 67.5147 685.751 98.5759C898.785 151.51 879.109 399.6 869.821 572.583C855.938 754.456 797.511 871.51 597.661 874.406ZM403.903 683.545C457.237 699.924 515.164 706.816 569.796 693.133C818.385 636.304 767.848 212.933 514.865 214.131C514.865 213.732 514.865 213.233 514.865 212.833C334.19 213.432 197.361 402.796 281.057 570.186C283.054 612.633 256.687 652.883 244.702 693.133C236.812 708.214 253.292 721.597 267.674 714.606C298.934 704.718 330.095 694.531 361.456 685.243C375.139 681.148 389.122 679.05 403.903 683.545Z" fill="#000000"/>
</svg>